<?xml version="1.0" encoding="UTF-8"?>
<svg id="_Шар_1" data-name="Шар_1" xmlns="http://www.w3.org/2000/svg" version="1.1" viewBox="0 0 204 32">
  <!-- Generator: Adobe Illustrator 29.5.1, SVG Export Plug-In . SVG Version: 2.1.0 Build 141)  -->
  <defs>
    <style>
      .st0 {
        fill: #27b34b;
      }

      .st1 {
        fill: #f26222;
      }

      .st2 {
        stroke: #fff;
        stroke-miterlimit: 10;
        stroke-width: .5px;
      }

      .st2, .st3 {
        fill: #fff;
      }

      .st4 {
        fill: #eead1f;
      }

      .st5 {
        fill: #1a73ba;
      }
    </style>
  </defs>
  <path class="st3" d="M140.4,23V6.2h7.8c1.5,0,2.7.4,3.6,1.2.9.8,1.3,1.9,1.3,3.3s-.7,3.2-2.1,3.9c1.6.7,2.4,2,2.4,4s-.4,2.5-1.3,3.3-2.1,1.2-3.6,1.2h-8ZM144.2,16.2v3.6h3.6c1.1,0,1.7-.6,1.7-1.8s-.6-1.8-1.7-1.8h-3.6ZM144.2,9.4v3.5h3.4c1.1,0,1.7-.6,1.7-1.8s-.6-1.8-1.7-1.8h-3.4ZM155.7,23V6.2h3.7v13.6h8v3.2h-11.7ZM178.8,17.1v-5.1c0-.9-.3-1.6-.8-2.1-.5-.5-1.2-.7-2.2-.7s-1.7.2-2.2.7c-.5.5-.8,1.2-.8,2.1v5.1c0,.9.3,1.6.8,2.1.5.5,1.2.7,2.2.7s1.7-.2,2.2-.7c.5-.5.8-1.2.8-2.1ZM182.5,12.1v5.1c0,2-.6,3.5-1.8,4.5-1.2,1-2.8,1.6-4.9,1.6s-3.7-.5-4.9-1.6c-1.2-1.1-1.8-2.6-1.8-4.5v-5.1c0-2,.6-3.5,1.8-4.5,1.2-1,2.8-1.6,4.9-1.6s3.7.5,4.9,1.6c1.2,1,1.8,2.5,1.8,4.5ZM191.1,16.9v-3.2h7.3v4.1c0,1.9-.6,3.3-1.8,4.2-1.2.9-2.8,1.3-4.9,1.3s-3.8-.5-4.9-1.5c-1.2-1-1.8-2.6-1.8-4.7v-4.8c0-2.1.6-3.6,1.8-4.7,1.2-1,2.8-1.6,4.9-1.6s3.7.4,4.9,1.3c1.2.9,1.8,2.3,1.8,4.1v.3h-3.7v-.3c0-1.5-1-2.2-3-2.2s-3,1-3,3v4.8c0,2,1,3,3,3s3-.7,3-2.2v-.8h-3.6Z"/>
  <path class="st3" d="M31.6,4.8c-.2-1.5-1.6-2.9-3-3L8.1,0c-1.4-.1-2.5,1.3-2.4,3.3l1.8,24.6c.1,1.9,1.5,3.3,3,3l21.5-4c1.5-.3,2.6-1.7,2.4-3.2l-2.9-18.9ZM31.6,26.3l-20.9,3.8c-1.4.2-2.5-.8-2.6-2.6L6.3,3.6c-.1-1.8.7-2.9,2-2.8l20,1.7c1.4.1,2.4,1.1,2.6,2.6l2.7,18.6c.2,1.4-.6,2.5-2,2.7Z"/>
  <path class="st0" d="M13.7,20l-5,.4.7,8.8,5.1-.8-.8-8.4Z"/>
  <path class="st1" d="M19.1,12.7h-5c0,0,1.4,15.5,1.4,15.5l5.1-.9-1.5-14.5Z"/>
  <path class="st4" d="M24.4,7.6h-5c0-.1,2.1,19.4,2.1,19.4l5.1-.8-2.3-18.5Z"/>
  <path class="st5" d="M29.8,4l-4.9-.3,2.8,22.3,5.1-.8-3-21.2Z"/>
  <path class="st2" d="M1,31L18.5,12.4l8.3,3.2,8.2-9.2-7.4,11.2-8.8-2.7L1,31Z"/>
  <path class="st3" d="M37.4,22.9v-10.4c0-1.9.6-3.3,1.8-4.3,1.2-1,2.8-1.5,4.9-1.5s3.7.5,4.9,1.5c1.2,1,1.8,2.4,1.8,4.3v10.4h-3.7v-5.3h-5.9v5.2h-3.7ZM41.1,14.6h5.9v-2.1c0-.9-.3-1.6-.8-2-.5-.5-1.3-.7-2.2-.7s-1.7.2-2.2.7c-.5.5-.8,1.1-.8,2v2.1h0Z"/>
  <path class="st3" d="M69.3,22.9v-10.4c0-1.9.6-3.3,1.8-4.3,1.2-1,2.8-1.5,4.9-1.5s3.7.5,4.9,1.5c1.2,1,1.8,2.4,1.8,4.3v10.4h-3.7v-5.3h-5.9v5.2h-3.7ZM73,14.6h5.9v-2.1c0-.9-.3-1.6-.8-2-.5-.5-1.3-.7-2.2-.7s-1.7.2-2.2.7c-.5.5-.8,1.1-.8,2v2.1h0Z"/>
  <path class="st3" d="M66.9,17c0,1.9-.6,3.4-1.8,4.4-1.2,1-2.8,1.5-4.8,1.5h-7.1V6.6h7.1c2,0,3.6.5,4.7,1.5,1.2,1,1.7,2.5,1.7,4.4v4.4h0ZM63.3,12.5c0-.9-.3-1.6-.8-2.1-.5-.5-1.2-.7-2.1-.7h-3.5v10h3.5c.9,0,1.6-.3,2.1-.7.5-.5.8-1.2.8-2.1v-4.4h0Z"/>
  <path class="st3" d="M84,6.7h3.9l2.7,10.2,2.7-10.2h3.5l-4.4,16.2h-4.2l-4.3-16.2Z"/>
  <path class="st3" d="M118.5,17h0c0,2-.6,3.4-1.7,4.4-1.1,1-2.7,1.5-4.6,1.5s-3.5-.5-4.6-1.5c-1.1-1-1.7-2.4-1.7-4.3v-4.8c0-1.9.6-3.3,1.7-4.3,1.1-1,2.7-1.5,4.6-1.5s3.5.5,4.6,1.5c1.1,1,1.7,2.4,1.7,4.3h0c0,.1-3.5.1-3.5.1h0c0-1-.3-1.7-.8-2.1-.5-.5-1.2-.7-2-.7s-1.6.2-2.1.7c-.5.5-.8,1.1-.8,2v4.8c0,.9.3,1.5.8,2,.5.5,1.2.7,2,.7s1.6-.2,2.1-.7c.5-.5.8-1.1.8-2h0c0-.1,3.5-.1,3.5-.1Z"/>
  <path class="st3" d="M127.7,22.9c-2,0-3.6-.5-4.7-1.5-1.2-1-1.7-2.5-1.7-4.4v-4.4c0-1.9.6-3.4,1.8-4.4,1.2-1,2.8-1.5,4.8-1.5h4.4v3.1h-4.4c-.9,0-1.6.3-2.1.7-.5.5-.8,1.2-.8,2.1v.7h4.2v3.1h-4.2v.7c0,.9.2,1.6.8,2.1.5.5,1.2.7,2.1.7h4.5v3.1h-4.5Z"/>
  <path class="st3" d="M103.2,6.7h-3.8v16.3h3.8V6.7Z"/>
</svg>